#define bluetooth_sniff_161761802261_width 16
#define bluetooth_sniff_161761802261_height 16
static char bluetooth_sniff_161761802261_bits[] = {
  0xFF, 0xFF, 0xFF, 0xFF, 0x77, 0xFF, 0x3B, 0xFF, 0x5D, 0xFF, 0x6D, 0xFD, 
  0x5D, 0xFE, 0x3B, 0xF7, 0x77, 0xEE, 0x3F, 0xDD, 0x5F, 0xDB, 0x7F, 0xDD, 
  0x7F, 0xEE, 0x7F, 0xF7, 0xFF, 0xFF, 0xFF, 0xFF, };
